#!OML:ASF E:\Style4\Style4.ASF
:FULLY-SPECIFIED
:DEGREES
3231
root 0.379828 17.4124 -2.24883 9.27119 2.40037 5.61499
lowerback 17.5503 4.29454 4.03675
upperback 14.6553 6.01954 2.8229
thorax 6.19754 3.23227 0.0763255
lowerneck 7.28984 -9.9521 -4.45495
upperneck -4.9393 -13.8853 -1.90002
head -2.64777 -6.73956 0.732391
rclavicle -3.33958e-014 -3.18055e-014
rhumerus 49.2426 29.4229 -63.6247
rradius 97.1287
rwrist -54.3943
rhand -46.3075 40.542
rfingers 7.12502
rthumb -19.0414 11.4541
lclavicle -3.33958e-014 -3.18055e-014
lhumerus 49.6433 -11.9299 40.8972
lradius 102.595
lwrist 56.7428
lhand -15.8904 40.5201
lfingers 7.12502
lthumb 10.3059 70.2476
rfemur -36.3263 -5.45129 12.8658
rtibia 45.7734
rfoot -16.5284 -20.034
rtoes -9.26427
lfemur -33.6364 1.45169 -26.4131
ltibia 39.0847
lfoot -14.5281 7.98601
ltoes -13.7793
3232
root 0.412521 17.4101 -2.24807 9.2881 1.87663 5.58009
lowerback 17.4259 4.23869 3.84874
upperback 14.6543 5.91263 2.84562
thorax 6.23169 3.15903 0.22353
lowerneck 7.25287 -9.77604 -4.47806
upperneck -4.92321 -13.678 -2.28932
head -2.66722 -6.62154 0.607298
rclavicle -1.90833e-014 1.59028e-015
rhumerus 48.9873 29.5547 -63.8353
rradius 97.2758
rwrist -54.2188
rhand -46.6499 41.4815
rfingers 7.12502
rthumb -19.3707 12.4264
lclavicle -1.90833e-014 1.59028e-015
lhumerus 49.7282 -11.9953 40.8467
lradius 102.449
lwrist 56.6222
lhand -15.5259 40.3574
lfingers 7.12502
lthumb 10.6575 70.0671
rfemur -36.4654 -5.32545 12.7966
rtibia 45.7394
rfoot -16.452 -19.6779
rtoes -9.09959
lfemur -33.7118 1.65506 -26.5051
ltibia 39.2374
lfoot -14.7811 8.22446
ltoes -13.5658
3233
root 0.441922 17.4053 -2.25023 9.30775 1.37058 5.61543
lowerback 17.3525 4.19123 3.60412
upperback 14.6499 5.81456 2.82533
thorax 6.23492 3.08807 0.350521
lowerneck 7.18496 -9.59127 -4.44731
upperneck -4.89595 -13.4457 -2.59978
head -2.67455 -6.49634 0.494523
rclavicle 1.36764e-013 -2.38542e-014
rhumerus 48.7106 29.543 -64.1637
rradius 97.3798
rwrist -54.0835
rhand -46.8004 42.04
rfingers 7.12502
rthumb -19.5154 12.9995
lclavicle 1.36764e-013 -2.38542e-014
lhumerus 49.847 -12.0522 40.7744
lradius 102.401
lwrist 56.7475
lhand -15.0623 40.171
lfingers 7.12502
lthumb 11.1047 69.8572
rfemur -36.6119 -5.19853 12.6599
rtibia 45.6965
rfoot -16.3423 -19.3792
rtoes -9.28771
lfemur -33.8125 1.85928 -26.664
ltibia 39.4119
lfoot -14.9312 8.41871
ltoes -13.0858
3234
root 0.473899 17.403 -2.25134 9.27897 0.82497 5.52501
lowerback 17.3464 4.15029 3.53474
upperback 14.6451 5.74699 2.80132
thorax 6.22552 3.04666 0.36987
lowerneck 7.16686 -9.42223 -4.46577
upperneck -4.87351 -13.2328 -2.79005
head -2.67916 -6.3838 0.429495
rclavicle 4.77083e-015 -4.77083e-015
rhumerus 48.3613 29.421 -64.5223
rradius 97.4636
rwrist -53.8538
rhand -46.8052 42.0313
rfingers 7.12502
rthumb -19.52 12.9911
lclavicle 4.77083e-015 -4.77083e-015
lhumerus 49.9949 -12.1772 40.6846
lradius 102.445
lwrist 56.8985
lhand -14.624 39.9432
lfingers 7.12502
lthumb 11.5274 69.6062
rfemur -36.693 -5.05046 12.6542
rtibia 45.6069
rfoot -16.1898 -19.0499
rtoes -9.61075
lfemur -33.8856 2.10854 -26.693
ltibia 39.6131
lfoot -15.0909 8.68719
ltoes -13.3068
3235
root 0.506029 17.4026 -2.25146 9.22132 0.27789 5.26976
lowerback 17.3822 4.08218 3.64202
upperback 14.6526 5.66419 2.79905
thorax 6.22629 3.01074 0.315553
lowerneck 7.09929 -9.23644 -4.49508
upperneck -4.8537 -12.9961 -2.98092
head -2.67473 -6.26009 0.362048
rclavicle 6.67916e-014 -2.22639e-014
rhumerus 48.0213 29.3701 -64.7603
rradius 97.6506
rwrist -53.8353
rhand -46.8208 42.1482
rfingers 7.12502
rthumb -19.535 13.1096
lclavicle 6.67916e-014 -2.22639e-014
lhumerus 50.1622 -12.3078 40.6044
lradius 102.486
lwrist 56.8868
lhand -14.1826 39.8485
lfingers 7.12502
lthumb 11.9531 69.4872
rfemur -36.724 -4.87915 12.8365
rtibia 45.488
rfoot -16.0607 -18.7041
rtoes -9.96607
lfemur -33.9391 2.36239 -26.5363
ltibia 39.8394
lfoot -15.1971 9.01145
ltoes -13.8175
3236
root 0.536901 17.4031 -2.24817 9.1563 -0.255476 4.95851
lowerback 17.3223 3.98627 3.6041
upperback 14.734 5.51921 2.90811
thorax 6.33142 2.92636 0.477417
lowerneck 7.0402 -8.99514 -4.66444
upperneck -4.94537 -12.7069 -3.17913
head -2.701 -6.10409 0.316131
rclavicle 2.8625e-014 -9.54166e-015
rhumerus 47.9725 29.5145 -64.7001
rradius 97.8254
rwrist -53.9836
rhand -46.9873 43.0624
rfingers 7.12502
rthumb -19.6951 14.0401
lclavicle 2.8625e-014 -9.54166e-015
lhumerus 50.2 -12.2274 40.7179
lradius 102.397
lwrist 56.8485
lhand -13.6396 39.8951
lfingers 7.12502
lthumb 12.4766 69.5026
rfemur -36.716 -4.70597 13.0894
rtibia 45.3483
rfoot -15.9219 -18.3698
rtoes -10.1683
lfemur -33.9623 2.62576 -26.3134
ltibia 40.0716
lfoot -15.4137 9.27622
ltoes -13.9401
3237
root 0.566458 17.4011 -2.24473 9.11005 -0.829075 4.83838
lowerback 17.3976 3.88764 3.67678
upperback 14.691 5.40208 2.70037
thorax 6.27021 2.88169 0.221572
lowerneck 7.11606 -8.77645 -4.51103
upperneck -5.00237 -12.4134 -3.25532
head -2.75259 -5.95525 0.264344
rclavicle -1.59028e-015 3.18055e-015
rhumerus 47.5617 29.418 -65.2731
rradius 97.988
rwrist -54.1694
rhand -47.0219 44.2284
rfingers 7.12502
rthumb -19.7283 15.2096
lclavicle -1.59028e-015 3.18055e-015
lhumerus 50.3509 -12.401 40.4947
lradius 102.255
lwrist 56.9921
lhand -13.2043 39.9064
lfingers 7.12502
lthumb 12.8963 69.4879
rfemur -36.7401 -4.57861 13.1406
rtibia 45.2141
rfoot -15.74 -18.0638
rtoes -10.5736
lfemur -33.9946 2.8685 -26.2988
ltibia 40.2847
lfoot -15.6842 9.58773
ltoes -14.2296
3238
root 0.5943 17.398 -2.24199 9.06169 -1.48307 4.81326
lowerback 17.3408 3.9175 3.44935
upperback 14.7441 5.4047 2.64829
thorax 6.34111 2.86486 0.29776
lowerneck 7.09624 -8.61338 -4.42321
upperneck -5.02709 -12.201 -3.43367
head -2.77748 -5.84424 0.187291
rclavicle 1.27222e-014 4.29375e-014
rhumerus 47.1708 29.2198 -65.5169
rradius 98.193
rwrist -54.2977
rhand -46.9283 44.7091
rfingers 7.12502
rthumb -19.6383 15.681
lclavicle 1.27222e-014 4.29375e-014
lhumerus 50.5957 -12.6374 40.5206
lradius 102.239
lwrist 57.4992
lhand -13.3952 39.9043
lfingers 7.12502
lthumb 12.7123 69.4974
rfemur -36.7885 -4.39175 13.0773
rtibia 45.0846
rfoot -15.536 -17.7458
rtoes -10.6708
lfemur -34.0109 3.10298 -26.3789
ltibia 40.4809
lfoot -15.9488 9.91802
ltoes -13.9377
3239
root 0.623194 17.3979 -2.23548 9.00992 -2.14889 4.69936
lowerback 17.3951 3.90839 3.51267
upperback 14.7029 5.40038 2.46276
thorax 6.29227 2.87466 0.0602302
lowerneck 7.04814 -8.46963 -4.20558
upperneck -4.91258 -11.9871 -3.56488
head -2.75404 -5.74149 0.0983025
rclavicle -9.54166e-014 1.90833e-014
rhumerus 46.6018 28.9865 -65.978
rradius 98.3975
rwrist -54.0326
rhand -46.998 44.5453
rfingers 7.12502
rthumb -19.7053 15.5241
lclavicle -9.54166e-014 1.90833e-014
lhumerus 50.8623 -13.0862 40.2772
lradius 102.498
lwrist 58.2786
lhand -14.3417 40.2028
lfingers 7.12502
lthumb 11.7996 69.8504
rfemur -36.8008 -4.16537 13.1007
rtibia 44.9499
rfoot -15.3552 -17.294
rtoes -10.2933
lfemur -33.9808 3.32916 -26.3506
ltibia 40.6547
lfoot -16.2096 10.1449
ltoes -12.9376
3240
root 0.650754 17.396 -2.23197 8.97335 -2.68986 4.55811
lowerback 17.612 3.8203 3.97065
upperback 14.5678 5.35665 2.02632
thorax 6.1213 2.91033 -0.671686
lowerneck 7.09185 -8.36424 -3.73288
upperneck -4.82761 -11.792 -3.49089
head -2.75877 -5.6581 0.0394389
rclavicle -5.24792e-014 2.22639e-014
rhumerus 45.8061 28.4615 -66.9495
rradius 98.5553
rwrist -53.4603
rhand -47.0971 44.6589
rfingers 7.12502
rthumb -19.8006 15.6475
lclavicle -5.24792e-014 2.22639e-014
lhumerus 51.3929 -13.689 39.7571
lradius 102.645
lwrist 58.6343
lhand -14.5839 40.252
lfingers 7.12502
lthumb 11.5661 69.9129
rfemur -36.8004 -3.97857 13.1587
rtibia 44.7937
rfoot -15.2065 -16.9234
rtoes -10.0994
lfemur -33.9834 3.48789 -26.2897
ltibia 40.836
lfoot -16.4291 10.4742
ltoes -12.7699
